<svg width="24" height="24" viewBox="0 0 24 24" fill="none" xmlns="http://www.w3.org/2000/svg">
<path d="M4.6001 18.52H19.6001C20.1501 18.52 20.6001 18.07 20.6001 17.52V13.52C20.6001 12.97 20.1501 12.52 19.6001 12.52H4.6001C4.0501 12.52 3.6001 12.97 3.6001 13.52V17.52C3.6001 18.07 4.0501 18.52 4.6001 18.52ZM3.6001 6.51999V10.52C3.6001 11.07 4.0501 11.52 4.6001 11.52H19.6001C20.1501 11.52 20.6001 11.07 20.6001 10.52V6.51999C20.6001 5.96999 20.1501 5.51999 19.6001 5.51999H4.6001C4.0501 5.51999 3.6001 5.96999 3.6001 6.51999Z" fill="#29465B"/>
</svg>
