<svg width="32" height="32" viewBox="0 0 32 32" fill="none" xmlns="http://www.w3.org/2000/svg">
<path d="M16 22.2C16 23.04 16.156 23.844 16.42 24.6H6.4C5.76348 24.6 5.15303 24.3471 4.70294 23.8971C4.25286 23.447 4 22.8365 4 22.2V5.4C4 4.08 5.08 3 6.4 3H23.2C23.8365 3 24.447 3.25286 24.8971 3.70294C25.3471 4.15303 25.6 4.76348 25.6 5.4V15.42C24.844 15.156 24.04 15 23.2 15V5.4H6.4V22.2H16ZM17.152 14.148L13.852 18.396L11.5 15.564L8.2 19.8H16.42C16.9 18.456 17.764 17.292 18.88 16.452L17.152 14.148ZM24.4 21V17.4H22V21H18.4V23.4H22V27H24.4V23.4H28V21H24.4Z" fill="#29465B"/>
</svg>
