<svg width="24" height="24" viewBox="0 0 24 24" fill="none" xmlns="http://www.w3.org/2000/svg">
<path d="M6.04004 18.8799C6.04004 19.9799 6.94004 20.8799 8.04004 20.8799H16.04C17.14 20.8799 18.04 19.9799 18.04 18.8799V6.87988H6.04004V18.8799ZM18.04 3.87988H15.54L14.83 3.16988C14.65 2.98988 14.39 2.87988 14.13 2.87988H9.95004C9.69004 2.87988 9.43004 2.98988 9.25004 3.16988L8.54004 3.87988H6.04004C5.49004 3.87988 5.04004 4.32988 5.04004 4.87988C5.04004 5.42988 5.49004 5.87988 6.04004 5.87988H18.04C18.59 5.87988 19.04 5.42988 19.04 4.87988C19.04 4.32988 18.59 3.87988 18.04 3.87988Z" fill="#29465B" fill-opacity="0.75"/>
</svg>
