<svg width="24" height="24" viewBox="0 0 24 24" fill="none" xmlns="http://www.w3.org/2000/svg">
<path d="M2.87988 17.3423V20.3823C2.87988 20.6623 3.09988 20.8823 3.37988 20.8823H6.41988C6.54988 20.8823 6.67988 20.8323 6.76988 20.7323L17.6899 9.82233L13.9399 6.07233L3.02988 16.9823C2.92988 17.0823 2.87988 17.2023 2.87988 17.3423ZM20.5899 5.51233L18.2499 3.17233C18.1574 3.07962 18.0475 3.00608 17.9265 2.95589C17.8055 2.90571 17.6758 2.87988 17.5449 2.87988C17.4139 2.87988 17.2842 2.90571 17.1633 2.95589C17.0423 3.00608 16.9324 3.07962 16.8399 3.17233L15.0099 5.00233L18.7599 8.75233L20.5899 6.92233C20.6826 6.82981 20.7561 6.71992 20.8063 6.59895C20.8565 6.47798 20.8823 6.3483 20.8823 6.21733C20.8823 6.08636 20.8565 5.95668 20.8063 5.8357C20.7561 5.71473 20.6826 5.60484 20.5899 5.51233Z" fill="#29465B" fill-opacity="0.75"/>
</svg>
