<svg width="20" height="20" viewBox="0 0 20 20" fill="none" xmlns="http://www.w3.org/2000/svg">
<path fill-rule="evenodd" clip-rule="evenodd" d="M15.0271 7.23196C15.2308 7.0623 15.4935 6.98047 15.7576 7.00448C16.0216 7.02848 16.2653 7.15634 16.4351 7.35996L18.5181 9.85996C18.6803 10.0645 18.7562 10.3243 18.7294 10.584C18.7027 10.8437 18.5755 11.0826 18.3749 11.2497C18.1743 11.4169 17.9164 11.4989 17.6561 11.4784C17.3959 11.4579 17.154 11.3364 16.9821 11.14L14.8991 8.63996C14.7294 8.43625 14.6476 8.17349 14.6716 7.90946C14.6956 7.64544 14.8235 7.40175 15.0271 7.23196Z" fill="#CD0F0F"/>
<path fill-rule="evenodd" clip-rule="evenodd" d="M15.0272 13.768C14.8234 13.5984 14.6954 13.3547 14.6712 13.0907C14.647 12.8267 14.7286 12.5638 14.8982 12.36L16.9822 9.86C17.0651 9.75555 17.168 9.66872 17.2849 9.60464C17.4019 9.54055 17.5304 9.5005 17.6631 9.48683C17.7957 9.47317 17.9297 9.48617 18.0573 9.52507C18.1848 9.56397 18.3033 9.62798 18.4057 9.71335C18.5082 9.79871 18.5925 9.9037 18.6538 10.0221C18.715 10.1406 18.752 10.2701 18.7625 10.403C18.7729 10.5359 18.7567 10.6696 18.7148 10.7962C18.6728 10.9227 18.606 11.0396 18.5182 11.14L16.4352 13.64C16.2654 13.8436 16.0217 13.9715 15.7577 13.9955C15.4937 14.0195 15.2309 13.9377 15.0272 13.768Z" fill="#CD0F0F"/>
<path fill-rule="evenodd" clip-rule="evenodd" d="M17.5 10.5C17.5 10.7652 17.3946 11.0196 17.2071 11.2071C17.0196 11.3946 16.7652 11.5 16.5 11.5H10C9.73478 11.5 9.48043 11.3946 9.29289 11.2071C9.10536 11.0196 9 10.7652 9 10.5C9 10.2348 9.10536 9.98043 9.29289 9.79289C9.48043 9.60536 9.73478 9.5 10 9.5H16.5C16.7652 9.5 17.0196 9.60536 17.2071 9.79289C17.3946 9.98043 17.5 10.2348 17.5 10.5ZM3 3.5C3 3.23478 3.10536 2.98043 3.29289 2.79289C3.48043 2.60536 3.73478 2.5 4 2.5H13C13.2652 2.5 13.5196 2.60536 13.7071 2.79289C13.8946 2.98043 14 3.23478 14 3.5C14 3.76522 13.8946 4.01957 13.7071 4.20711C13.5196 4.39464 13.2652 4.5 13 4.5H4C3.73478 4.5 3.48043 4.39464 3.29289 4.20711C3.10536 4.01957 3 3.76522 3 3.5ZM3 17.5C3 17.2348 3.10536 16.9804 3.29289 16.7929C3.48043 16.6054 3.73478 16.5 4 16.5H13C13.2652 16.5 13.5196 16.6054 13.7071 16.7929C13.8946 16.9804 14 17.2348 14 17.5C14 17.7652 13.8946 18.0196 13.7071 18.2071C13.5196 18.3946 13.2652 18.5 13 18.5H4C3.73478 18.5 3.48043 18.3946 3.29289 18.2071C3.10536 18.0196 3 17.7652 3 17.5Z" fill="#CD0F0F"/>
<path fill-rule="evenodd" clip-rule="evenodd" d="M13 2.5C13.2652 2.5 13.5196 2.60536 13.7071 2.79289C13.8946 2.98043 14 3.23478 14 3.5V7.5C14 7.76522 13.8946 8.01957 13.7071 8.20711C13.5196 8.39464 13.2652 8.5 13 8.5C12.7348 8.5 12.4804 8.39464 12.2929 8.20711C12.1054 8.01957 12 7.76522 12 7.5V3.5C12 3.23478 12.1054 2.98043 12.2929 2.79289C12.4804 2.60536 12.7348 2.5 13 2.5ZM13 12.5C13.2652 12.5 13.5196 12.6054 13.7071 12.7929C13.8946 12.9804 14 13.2348 14 13.5V17.5C14 17.7652 13.8946 18.0196 13.7071 18.2071C13.5196 18.3946 13.2652 18.5 13 18.5C12.7348 18.5 12.4804 18.3946 12.2929 18.2071C12.1054 18.0196 12 17.7652 12 17.5V13.5C12 13.2348 12.1054 12.9804 12.2929 12.7929C12.4804 12.6054 12.7348 12.5 13 12.5ZM4 2.5C4.26522 2.5 4.51957 2.60536 4.70711 2.79289C4.89464 2.98043 5 3.23478 5 3.5V17.5C5 17.7652 4.89464 18.0196 4.70711 18.2071C4.51957 18.3946 4.26522 18.5 4 18.5C3.73478 18.5 3.48043 18.3946 3.29289 18.2071C3.10536 18.0196 3 17.7652 3 17.5V3.5C3 3.23478 3.10536 2.98043 3.29289 2.79289C3.48043 2.60536 3.73478 2.5 4 2.5Z" fill="#CD0F0F"/>
</svg>
