<svg width="19" height="22" viewBox="0 0 19 22" fill="none" xmlns="http://www.w3.org/2000/svg">
<path d="M14 21.5C12.6167 21.5 11.4377 21.0123 10.463 20.037C9.48833 19.0617 9.00067 17.8827 9 16.5C8.99933 15.1173 9.487 13.9383 10.463 12.963C11.439 11.9877 12.618 11.5 14 11.5C15.382 11.5 16.5613 11.9877 17.538 12.963C18.5147 13.9383 19.002 15.1173 19 16.5C18.998 17.8827 18.5103 19.062 17.537 20.038C16.5637 21.014 15.3847 21.5013 14 21.5ZM15.675 18.875L16.375 18.175L14.5 16.3V13.5H13.5V16.7L15.675 18.875ZM2 20.5C1.45 20.5 0.979333 20.3043 0.588 19.913C0.196667 19.5217 0.000666667 19.0507 0 18.5V4.5C0 3.95 0.196 3.47933 0.588 3.088C0.98 2.69667 1.45067 2.50067 2 2.5H6.175C6.35833 1.91667 6.71667 1.43767 7.25 1.063C7.78333 0.688333 8.36667 0.500667 9 0.5C9.66667 0.5 10.2627 0.687667 10.788 1.063C11.3133 1.43833 11.6673 1.91733 11.85 2.5H16C16.55 2.5 17.021 2.696 17.413 3.088C17.805 3.48 18.0007 3.95067 18 4.5V10.75C17.7 10.5333 17.3833 10.35 17.05 10.2C16.7167 10.05 16.3667 9.91667 16 9.8V4.5H14V7.5H4V4.5H2V18.5H7.3C7.41667 18.8667 7.55 19.2167 7.7 19.55C7.85 19.8833 8.03333 20.2 8.25 20.5H2ZM9 4.5C9.28333 4.5 9.521 4.404 9.713 4.212C9.905 4.02 10.0007 3.78267 10 3.5C9.99933 3.21733 9.90333 2.98 9.712 2.788C9.52067 2.596 9.28333 2.5 9 2.5C8.71667 2.5 8.47933 2.596 8.288 2.788C8.09667 2.98 8.00067 3.21733 8 3.5C7.99933 3.78267 8.09533 4.02033 8.288 4.213C8.48067 4.40567 8.718 4.50133 9 4.5Z" fill="#29465B"/>
</svg>
