<svg width="24" height="24" viewBox="0 0 24 24" fill="none" xmlns="http://www.w3.org/2000/svg">
<path d="M1 18C0.716667 18 0.479333 17.904 0.288 17.712C0.0966666 17.52 0.000666667 17.2827 0 17V16.425C0 15.7083 0.366667 15.125 1.1 14.675C1.83333 14.225 2.8 14 4 14C4.21667 14 4.425 14.0043 4.625 14.013C4.825 14.0217 5.01667 14.0423 5.2 14.075C4.96667 14.425 4.79167 14.7917 4.675 15.175C4.55833 15.5583 4.5 15.9583 4.5 16.375V18H1ZM7 18C6.71667 18 6.47933 17.904 6.288 17.712C6.09667 17.52 6.00067 17.2827 6 17V16.375C6 15.8417 6.146 15.354 6.438 14.912C6.73 14.47 7.14233 14.0827 7.675 13.75C8.20767 13.4173 8.84533 13.1673 9.588 13C10.3307 12.8327 11.1347 12.7493 12 12.75C12.8833 12.75 13.696 12.8333 14.438 13C15.18 13.1667 15.8173 13.4167 16.35 13.75C16.8827 14.0833 17.291 14.471 17.575 14.913C17.859 15.355 18.0007 15.8423 18 16.375V17C18 17.2833 17.9043 17.521 17.713 17.713C17.5217 17.905 17.284 18.0007 17 18H7ZM19.5 18V16.375C19.5 15.9417 19.446 15.5333 19.338 15.15C19.23 14.7667 19.0673 14.4083 18.85 14.075C19.0333 14.0417 19.221 14.021 19.413 14.013C19.605 14.005 19.8007 14.0007 20 14C21.2 14 22.1667 14.221 22.9 14.663C23.6333 15.105 24 15.6923 24 16.425V17C24 17.2833 23.904 17.521 23.712 17.713C23.52 17.905 23.2827 18.0007 23 18H19.5ZM4 13C3.45 13 2.97933 12.8043 2.588 12.413C2.19667 12.0217 2.00067 11.5507 2 11C2 10.4333 2.196 9.95833 2.588 9.575C2.98 9.19167 3.45067 9 4 9C4.56667 9 5.04167 9.19167 5.425 9.575C5.80833 9.95833 6 10.4333 6 11C6 11.55 5.80833 12.021 5.425 12.413C5.04167 12.805 4.56667 13.0007 4 13ZM20 13C19.45 13 18.9793 12.8043 18.588 12.413C18.1967 12.0217 18.0007 11.5507 18 11C18 10.4333 18.196 9.95833 18.588 9.575C18.98 9.19167 19.4507 9 20 9C20.5667 9 21.0417 9.19167 21.425 9.575C21.8083 9.95833 22 10.4333 22 11C22 11.55 21.8083 12.021 21.425 12.413C21.0417 12.805 20.5667 13.0007 20 13ZM12 12C11.1667 12 10.4583 11.7083 9.875 11.125C9.29167 10.5417 9 9.83333 9 9C9 8.15 9.29167 7.43767 9.875 6.863C10.4583 6.28833 11.1667 6.00067 12 6C12.85 6 13.5627 6.28767 14.138 6.863C14.7133 7.43833 15.0007 8.15067 15 9C15 9.83333 14.7127 10.5417 14.138 11.125C13.5633 11.7083 12.8507 12 12 12Z" fill="#29465B"/>
</svg>
